<svg width="42" height="42" viewBox="0 0 42 42" fill="none" xmlns="http://www.w3.org/2000/svg">
<path d="M42 21C42 16.8466 40.7684 12.7865 38.4609 9.33302C36.1533 5.87959 32.8736 3.18797 29.0363 1.59853C25.1991 0.00908808 20.9767 -0.406782 16.9031 0.403509C12.8295 1.2138 9.08765 3.21385 6.15075 6.15076C3.21385 9.08766 1.21379 12.8295 0.403505 16.9031C-0.406786 20.9767 0.00908514 25.1991 1.59852 29.0364C3.18797 32.8736 5.87959 36.1534 9.33302 38.4609C12.7865 40.7684 16.8466 42 21 42C26.5695 42 31.911 39.7875 35.8492 35.8492C39.7875 31.911 42 26.5695 42 21ZM33 22.5L14.775 22.5L23.145 30.9105L21 33L8.99999 21L21 9L23.145 11.1405L14.775 19.5L33 19.5L33 22.5Z" fill="#949494"/>
</svg>
